P1
1024 8
0000000000000000000000000000000000000000000000000000000000000000000000000000000000000000000000000000000000000000000000000000000000000000000000000000000000000000000000000000000000000000000000000000000000000000000000000000000000000000000000000000000000000000000000000000100000010100000101000000100000000000000110000000100000000100000100000000100000001000000000000000000000000000000000010001110000001000000111000001110000001100001111100001110000111110000111000001110000000000000000000000010000000000001000000001110000011100000111000011110000011100001111000011111000111110000111000010001000011100000011100010001000010000010000010010001000011100000111000001110000111100000111000011111000100010001000100100000100100010001000100011111000011100010000000001110000001000000000000001000000000000000100000000000000000010000000000000110000000000001000000000000000000000001000000001100000000000000000000000000000000000000000000000000000000000000000000000000000000000000000000000000000000000000000000000110000001000001100000000000000000000
0000000000000000000000000000000000000000000000000000000000000000000000000000000000000000000000000000000000000000000000000000000000000000000000000000000000000000000000000000000000000000000000000000000000000000000000000000000000000000000000000000000000000000000000000000100000010100000101000001111000110010001010000000100000001000000010000100100100001000000000000000000000000000000000100010001000011000001000100010001000010100001000000010001000000010001000100010001000001100000011000000100000000000000100000010001000100010001000100010001000100010001000100010000000100000001000100010001000001000000001000010001000010000011000110011001000100010000100100010001000100010001000100000100000100010001000100100000100100010001000100000001000010000001000000000010000010100000000000000100000011100000100000000000000000010000000000001001000000000001000000000100000001000001000000000100000000000000000000000000000000000000000000000000000000000000010000000000000000000000000000000000000000000000000000001000000001000000010000000000000000000
0000000000000000000000000000000000000000000000000000000000000000000000000000000000000000000000000000000000000000000000000000000000000000000000000000000000000000000000000000000000000000000000000000000000000000000000000000000000000000000000000000000000000000000000000000100000000000011111110010100000110100000100000000000000010000000001000010101000001000000000000000000000000000000001000010001000001000000000100000001000100100001000000010000000000100001000100010001000001100000011000001000001111111000010000000001000101110001000100010001000100000001000100010000000100000001000000010001000001000000001000010010000010000010101010010101000100010000100100010001000100010001000000000100000100010001000100100000100010100000101000000010000010000000100000000010000100010000000000000000000000010000111000001110000001110000111000001000000011101001011000000000000000000001001000000100010110110001011000001110000101100000110100010110000011100000111000010010000100010010000010010001000010010001111000001000000001000000010000011000000000000
0000000000000000000000000000000000000000000000000000000000000000000000000000000000000000000000000000000000000000000000000000000000000000000000000000000000000000000000000000000000000000000000000000000000000000000000000000000000000000000000000000000000000000000000000000100000000000000101000001110000001000001010000000000000010000000001000001110001111111000000000111111100000000000010000010101000001000000001000000110000111110001111000011110000001000000111000001111000000000000000000010000000000000000001000000010000101010001111100011110000100000001000100011110000111110001011100011111000001000000001000011100000010000010010010010101000100010000111000010001000111100000111000000100000100010000101000010101000001000000010000000100000010000000010000000010000000000000000000000000000011110000100100010000000010010001000100011100000100010001100100000100000001000001010000000100001001001000100100010001000010010001001000011000000100000000010000010010000100010010000010001010000010010000001000010000000001000000001000100100100000000
0000000000000000000000000000000000000000000000000000000000000000000000000000000000000000000000000000000000000000000000000000000000000000000000000000000000000000000000000000000000000000000000000000000000000000000000000000000000000000000000000000000000000000000000000000100000000000011111110000101000010110010001100000000000010000000001000010101000001000000011000000000000000000000100000010001000001000000010000000001000000100000000100010001000010000001000100000001000001100000011000001000001111111000010000000100000101110001000100010001000100000001000100010000000100000001000100010001000001000001001000010010000010000010000010010011000100010000100000010001000101000000000100000100000100010000101000010101000010100000010000001000000010000000001000000010000000000000000000000000000100010000100100010000000010010001111100001000000100010001000100000100000001000001100000000100001001001000100100010001000010010001001000010000000011000000010000010010000100010010010010000100000010010000010000001000000001000000010000000011000000000
0000000000000000000000000000000000000000000000000000000000000000000000000000000000000000000000000000000000000000000000000000000000000000000000000000000000000000000000000000000000000000000000000000000000000000000000000000000000000000000000000000000000000000000000000000000000000000000101000011110000100110010001000000000000001000000010000100100100001000000011000000000000001100001000000010001000001000000100000010001000000100001000100010001000010000001000100010001000001100000011000000100000000000000100000000000000100000001000100010001000100010001000100010000000100000001000100010001000001000001001000010001000010000010000010010001000100010000100000010001000100100001000100000100000100010000010000001010000100010000010000010000000010000000000100000010000000000000000000000000000100010000100100010000000010010001000000001000000011110001000100000100000001000001010000000100001000001000100100010001000011100000111000010000000000100000010000010010000010100010101010001010000001110000100000001000000001000000010000000000000000000
0000000000000000000000000000000000000000000000000000000000000000000000000000000000000000000000000000000000000000000000000000000000000000000000000000000000000000000000000000000000000000000000000000000000000000000000000000000000000000000000000000000000000000000000000000100000000000000101000000100000000000001110100000000000000100000100000000100000001000000001000000000000001100010000000001110000011100001111100001110000001110000111000001110000010000000111000001110000000000000001000000010000000000001000000000100000011100001000100011110000011100001111000011111000100000000111000010001000011100000110000010001000011110010000010010001000011100000100000001110000100010000111000000100000011100000010000001010000100010000010000011111000011100000000010001110000000000000000000000000000011101001011000001110000001101000111000001000000000010001000100000100000001000001001000000100001000001000100100001110000010000000001000010000000111000000010000001101000001000001000100010001000000010001111000000110000001000001100000000000000000000
0000000000000000000000000000000000000000000000000000000000000000000000000000000000000000000000000000000000000000000000000000000000000000000000000000000000000000000000000000000000000000000000000000000000000000000000000000000000000000000000000000000000000000000000000000000000000000000000000000000000000000000000000000000000000000000000000000000000000000000010000000000000000000000000000000000000000000000000000000000000000000000000000000000000000000000000000000000000000000000010000000000000000000000000000000000000000000000000000000000000000000000000000000000000000000000000000000000000000000000000000000000000000000000000000000000000000000000000000000011000000000000000000000000000000000000000000000000000000000000000000000000000000000000000000000000000000000011111110000000000000000000000000000000000000000000000000000000000011100000000000000000000110000000000000000000000000000000000000000000000010000000001000000000000000000000000000000000000000000000000000000000000011100000000000000000000000000000000000000000000000000
